PathFileType	4	(X/Y/Z)	SUBJ62_3_walk_RCNL2025.trc
DataRate	CameraRate	NumFrames	NumMarkers	Units	OrigDataRate	OrigDataStartFrame	OrigNumFrames
100	100	13	25	mm	100	1	316
Frame#	Time	R_Shoulder			L_Shoulder			C7			J_Notch			R_Elbow			L_Elbow			R_Wrist			L_Wrist			R_Asis			L_Asis			Sacral			Thoracic			Sternum			R_Thigh_Lateral			R_Knee_Lateral			R_Shank_Lateral			R_Ankle_Lateral			R_Heel			R_Toe			L_Thigh_Lateral			L_Knee_Lateral			L_Shank_Lateral			L_Ankle_Lateral			L_Heel			L_Toe		
		X1	Y1	Z1	X2	Y2	Z2	X3	Y3	Z3	X4	Y4	Z4	X5	Y5	Z5	X6	Y6	Z6	X7	Y7	Z7	X8	Y8	Z8	X9	Y9	Z9	X10	Y10	Z10	X11	Y11	Z11	X12	Y12	Z12	X13	Y13	Z13	X14	Y14	Z14	X15	Y15	Z15	X16	Y16	Z16	X17	Y17	Z17	X18	Y18	Z18	X19	Y19	Z19	X20	Y20	Z20	X21	Y21	Z21	X22	Y22	Z22	X23	Y23	Z23	X24	Y24	Z24	X25	Y25	Z25
1	0.00000000	-2023.091187	1268.836670	265.619110	-2044.526123	1285.098755	-72.665733	-2107.026367	1343.395142	100.009468	-1976.749390	1256.167236	92.446625	-2052.427002	971.990173	339.580750	-2100.040283	985.520264	-136.144440	-1928.257202	788.548798	336.600510	-2042.562500	770.468719	-130.240795	-1992.026123	854.680359	237.020630	-1968.812256	866.769714	-22.092861	-2154.258545	859.938843	87.065636	-2173.718750	1148.056274	94.777382	-1958.961792	1054.970581	95.555931	-2019.842773	467.066803	307.575256	-2008.024536	407.078735	240.173477	-2128.567383	292.387665	281.659454	-2284.537842	180.466827	214.557465	-2326.671387	214.173157	174.349228	-2247.167725	83.002159	206.695450	-1973.831055	467.475555	-66.766808	-1975.033936	404.808533	-12.576857	-1960.335938	209.709869	-34.447731	-1976.891602	45.884247	38.504421	-2036.742188	46.113239	79.635361	-1869.635498	32.003178	52.780117
2	0.01000000	-2012.684814	1269.591553	265.417542	-2032.794800	1286.284058	-72.977150	-2095.716064	1344.605469	99.374557	-1965.672485	1256.973511	92.178642	-2046.231201	972.699646	337.780212	-2082.894531	986.390869	-138.616180	-1928.182312	785.286774	336.490601	-2026.434998	771.912781	-132.124001	-1981.377075	856.362122	235.942963	-1958.753906	867.371460	-23.189566	-2143.968262	861.164307	86.292145	-2162.814697	1149.409424	93.681572	-1948.411743	1055.807129	95.087402	-2002.559448	468.832855	306.059357	-1986.655640	409.989441	239.495514	-2105.428467	295.208374	281.549988	-2259.500732	180.253113	215.132004	-2302.740723	211.981674	174.502594	-2218.762207	84.283905	208.109329	-1970.766235	467.218719	-67.109398	-1972.338379	404.776642	-12.758200	-1959.561768	209.380768	-34.665890	-1976.776611	45.829296	38.616463	-2036.611938	46.284653	79.757866	-1869.601807	31.981613	52.889145
3	0.02000000	-2002.412964	1270.264771	265.242889	-2021.222656	1287.455200	-73.269295	-2084.526367	1345.721680	98.773697	-1954.703125	1257.719360	91.927261	-2040.171753	973.418213	336.024780	-2065.676758	987.332581	-141.009048	-1928.301819	782.285217	336.357483	-2008.580078	773.711182	-134.068069	-1970.629883	858.079895	234.851166	-1948.761963	867.971558	-24.297462	-2133.739990	862.336853	85.671158	-2151.989014	1150.654541	92.614716	-1937.941895	1056.582031	94.594727	-1985.405518	470.703583	304.422882	-1965.545410	413.110229	238.665878	-2082.018799	297.540741	281.313324	-2233.678955	178.924713	215.588470	-2278.152100	208.366318	174.518936	-2189.116943	84.719688	209.007401	-1967.715332	467.050751	-67.347694	-1969.766235	404.769623	-12.883498	-1958.830566	209.105743	-34.839874	-1976.669189	45.804718	38.719093	-2036.468140	46.448586	79.901558	-1869.561035	31.951643	52.987057
4	0.03000000	-1992.250854	1270.856201	265.082520	-2009.807617	1288.602661	-73.549591	-2073.451172	1346.728882	98.202942	-1943.828003	1258.401245	91.676216	-2034.250854	974.147095	334.320251	-2048.423828	988.341492	-143.310898	-1928.564026	779.563263	336.182968	-1989.145264	775.864044	-136.040321	-1959.782593	859.789978	233.747284	-1938.824097	868.553223	-25.417183	-2123.561035	863.430725	85.210808	-2141.225830	1151.775635	91.581848	-1927.525635	1057.290649	94.070732	-1968.187500	472.651520	302.770111	-1944.728271	416.343018	237.707962	-2058.372314	299.252869	280.931091	-2207.119385	176.480530	215.871506	-2252.894287	203.378571	174.357330	-2158.389893	84.346489	209.445892	-1964.623779	466.966003	-67.505531	-1967.289307	404.782959	-12.972323	-1958.114380	208.876984	-34.975224	-1976.564697	45.804798	38.811268	-2036.311401	46.608189	80.058472	-1869.510620	31.914684	53.075905
5	0.04000000	-1982.171753	1271.360229	264.928040	-1998.540527	1289.710327	-73.822456	-2062.479492	1347.613037	97.659981	-1933.031128	1259.011230	91.412033	-2028.462646	974.882385	332.667664	-2031.174805	989.406372	-145.510849	-1928.913635	777.127533	335.947083	-1968.399292	778.352173	-137.997452	-1948.845215	861.443970	232.636581	-1928.927979	869.086243	-26.546432	-2113.419189	864.419983	84.912071	-2130.510254	1152.758667	90.588379	-1917.138306	1057.924561	93.512802	-1950.765259	474.660675	301.198425	-1924.240601	419.595947	236.649078	-2034.526367	300.250153	280.385864	-2179.856689	172.943512	215.928055	-2226.942627	197.097580	173.980316	-2126.715088	83.231110	209.493256	-1961.459717	466.948792	-67.607338	-1964.883423	404.811096	-13.041813	-1957.386475	208.686020	-35.076851	-1976.459106	45.823483	38.893398	-2036.143555	46.768665	80.219727	-1869.447510	31.870722	53.157867
6	0.05000000	-1972.146606	1271.766724	264.774750	-1987.406250	1290.757202	-74.089653	-2051.596191	1348.361206	97.143936	-1922.295776	1259.536865	91.124886	-2022.792480	975.614929	331.064270	-2013.969238	990.509521	-147.599838	-1929.293091	774.972717	335.630264	-1946.667175	781.144287	-139.892879	-1937.836670	862.992432	231.526917	-1919.062378	869.531738	-27.679682	-2103.302490	865.281250	84.768692	-2119.829346	1153.592163	89.640060	-1906.758667	1058.471558	92.922150	-1933.063477	476.721436	299.787506	-1904.121216	422.787140	235.518555	-2010.520386	300.482513	279.665131	-2151.910400	168.363007	215.716919	-2200.262207	189.627701	173.360641	-2094.203125	81.462006	209.213425	-1958.209351	466.977386	-67.675385	-1962.526245	404.848389	-13.105289	-1956.623413	208.524521	-35.149223	-1976.349121	45.856014	38.966518	-2035.967896	46.937504	80.376251	-1869.369019	31.818323	53.234871
7	0.06000000	-1962.145752	1272.062134	264.620789	-1976.385498	1291.719360	-74.350929	-2040.783081	1348.962280	96.655037	-1911.604980	1259.963013	90.809059	-2017.217407	976.332275	329.505463	-1996.844849	991.628479	-149.570969	-1929.644470	773.083130	335.216141	-1924.277710	784.203064	-141.682796	-1926.781128	864.388000	230.428192	-1909.219971	869.847168	-28.808077	-2093.199951	865.995117	84.767937	-2109.170166	1154.267212	88.742851	-1896.369507	1058.916260	92.302948	-1915.072876	478.823975	298.591827	-1884.409668	425.846558	234.345398	-1986.395264	299.946411	278.764557	-2123.287109	162.816299	215.214401	-2172.812744	181.095581	172.485092	-2060.940674	79.143456	208.654266	-1954.872681	467.028198	-67.727882	-1960.196411	404.889648	-13.171628	-1955.807129	208.384811	-35.197086	-1976.233398	45.899570	39.031780	-2035.787964	47.124107	80.519882	-1869.271606	31.755274	53.308399
8	0.07000000	-1952.139771	1272.230713	264.466156	-1965.455322	1292.571655	-74.604843	-2030.019653	1349.406738	96.194122	-1900.942871	1260.272583	90.463142	-2011.708618	977.019714	327.987427	-1979.835938	992.737671	-151.419754	-1929.911011	771.434814	334.693924	-1901.527039	787.489594	-143.330315	-1915.703735	865.588806	229.351837	-1899.397339	869.992004	-29.919712	-2083.100342	866.546875	84.892204	-2098.522949	1154.777466	87.902695	-1885.958740	1059.241333	91.661377	-1896.844238	480.952057	297.636871	-1865.146729	428.716675	233.155899	-1962.192871	298.682312	277.690125	-2093.981934	156.408813	214.415527	-2144.553467	171.647430	171.355606	-2026.997070	76.392189	207.842636	-1951.457520	467.079285	-67.778282	-1957.873413	404.930725	-13.245372	-1954.927856	208.260345	-35.226196	-1976.111328	45.953068	39.090469	-2035.607788	47.338921	80.644768	-1869.152710	31.679522	53.379295
9	0.08000000	-1942.100952	1272.256592	264.311707	-1954.592163	1293.289795	-74.849442	-2019.285278	1349.687256	95.762299	-1890.294922	1260.448242	90.089851	-2006.233643	977.662415	326.509399	-1962.972290	993.810425	-153.144073	-1930.038818	769.998108	334.060226	-1878.658325	790.966370	-144.807579	-1904.625977	866.561035	228.310104	-1889.594971	869.932617	-31.000454	-2072.993408	866.927002	85.121185	-2087.878418	1155.118530	87.125244	-1875.519409	1059.428345	91.004837	-1878.478271	483.078430	296.919220	-1846.374634	431.351501	231.971634	-1937.955811	296.767731	276.458405	-2063.984131	149.272705	213.331619	-2115.449219	161.446411	169.987549	-1992.428345	73.335991	206.785873	-1947.974854	467.112946	-67.835396	-1955.537476	404.968811	-13.327347	-1953.985229	208.146454	-35.243633	-1975.982544	46.016415	39.144276	-2035.430542	47.592274	80.748718	-1869.010498	31.590237	53.447445
10	0.09000000	-1932.004883	1272.124878	264.158722	-1943.772217	1293.851929	-75.082710	-2008.560547	1349.798218	95.360504	-1879.649292	1260.473877	89.695480	-2000.759033	978.246887	325.074860	-1946.279175	994.820190	-154.744019	-1929.978210	768.740723	333.319748	-1855.854858	794.598694	-146.095901	-1893.562134	867.281128	227.315262	-1879.814697	869.646240	-32.035252	-2062.868896	867.130310	85.434235	-2077.229492	1155.287964	86.415703	-1865.049072	1059.458984	90.341331	-1860.113403	485.162750	296.410858	-1828.137329	433.714966	230.808426	-1913.726807	294.307709	275.095001	-2033.284302	141.564117	211.985809	-2085.475342	150.670029	168.406448	-1957.286255	70.113106	205.478043	-1944.435547	467.117340	-67.904076	-1953.170410	405.002899	-13.415498	-1952.987915	208.041092	-35.257359	-1975.846313	46.089893	39.195721	-2035.258301	47.893253	80.834061	-1868.845825	31.488705	53.511295
11	0.10000000	-1921.831543	1271.824341	264.008545	-1932.974243	1294.239746	-75.302803	-1997.829102	1349.736084	94.989357	-1868.996948	1260.335571	89.289101	-1995.252075	978.762146	323.691528	-1929.776367	995.742493	-156.221603	-1929.684082	767.630066	332.484970	-1833.244385	798.354950	-147.184574	-1882.517578	867.736633	226.378952	-1870.057129	869.123169	-33.009781	-2052.717773	867.155334	85.812630	-2066.571045	1155.285034	85.778572	-1854.548584	1059.317017	89.679054	-1841.912842	487.152039	296.066223	-1810.479858	435.778748	229.676056	-1889.549561	291.423859	273.631500	-2001.882080	133.459305	210.408157	-2054.621582	139.507309	166.644119	-1921.626221	66.871475	203.908737	-1940.847778	467.086761	-67.985970	-1950.755981	405.033722	-13.505693	-1951.951294	207.945480	-35.275043	-1975.700928	46.173946	39.248531	-2035.091309	48.249062	80.907883	-1868.663086	31.378908	53.567532
12	0.11000000	-1911.566895	1271.347534	263.862671	-1922.179565	1294.438599	-75.508003	-1987.078125	1349.499512	94.649033	-1858.331299	1260.022827	88.881393	-1989.682495	979.200500	322.369812	-1913.479004	996.555359	-157.580170	-1929.116943	766.636078	331.574966	-1810.909180	802.205902	-148.068829	-1871.488281	867.925720	225.511414	-1860.319946	868.366943	-33.912041	-2042.530762	867.003235	86.241348	-2055.899170	1155.110107	85.217575	-1844.021362	1058.989502	89.026337	-1824.050903	488.982544	295.830597	-1793.447144	437.519531	228.578827	-1865.470093	288.244171	272.101562	-1969.794312	125.149643	208.631775	-2022.897339	128.155472	164.735245	-1885.514648	63.767029	202.072388	-1937.215576	467.021240	-68.079987	-1948.280151	405.063873	-13.592393	-1950.894531	207.864349	-35.302464	-1975.544312	46.269516	39.307808	-2034.928223	48.664989	80.981293	-1868.470825	31.267597	53.611145
13	0.12000000	-1901.202515	1270.692383	263.723114	-1911.374268	1294.438721	-75.696686	-1976.299927	1349.089233	94.339371	-1847.648804	1259.529175	88.483444	-1984.022217	979.557678	321.121185	-1897.397339	997.240356	-158.823776	-1928.242188	765.732452	330.612762	-1788.898621	806.123871	-148.747677	-1860.463135	867.855347	224.720978	-1850.597046	867.392517	-34.733646	-2032.299561	866.677307	86.710228	-2045.211426	1154.764526	84.735519	-1833.471680	1058.468506	88.391617	-1806.699097	490.582672	295.648773	-1777.081787	438.916504	227.516708	-1841.537842	284.894470	270.537262	-1937.061279	116.835663	206.690536	-1990.336548	116.816368	162.715103	-1849.037231	60.960133	199.975845	-1933.539062	466.925171	-68.182465	-1945.730103	405.097687	-13.669178	-1949.836426	207.805725	-35.341988	-1975.374756	46.378746	39.379929	-2034.765625	49.145073	81.067947	-1868.281372	31.163702	53.636166
